/* XPM */
static char *_a5cf31c68f24304b8dcac5e4f70e944[] = {
/* columns rows colors chars-per-pixel */
"50 36 154 2 ",
"   c #1D2331",
".  c #212223",
"X  c #28292C",
"o  c #303133",
"O  c #3A3B3D",
"+  c #1D2A56",
"@  c #1A2E5D",
"#  c #292C5F",
"$  c #1A2D60",
"%  c #2A3960",
"&  c #343F7D",
"*  c #613858",
"=  c #573B65",
"-  c #6F3367",
";  c #643A79",
":  c #7C3A78",
">  c #29417F",
",  c #264574",
"<  c #30447E",
"1  c #474E58",
"2  c #51596C",
"3  c #44427B",
"4  c #434A76",
"5  c #6E417A",
"6  c #7E4572",
"7  c #7D666E",
"8  c #7A7A7F",
"9  c #67686A",
"0  c #972E56",
"q  c #804A57",
"w  c #AD6557",
"e  c #98406A",
"r  c #845E69",
"t  c #E3A75F",
"y  c #2D3F89",
"u  c #195D9A",
"i  c #264485",
"p  c #2A4484",
"a  c #294986",
"s  c #24458A",
"d  c #28448A",
"f  c #2F4D8B",
"g  c #304481",
"h  c #344980",
"j  c #314B88",
"k  c #225C8C",
"l  c #3A5089",
"z  c #2E5290",
"x  c #2E5990",
"c  c #215F9B",
"v  c #375092",
"b  c #386294",
"n  c #215DA3",
"m  c #2B68A1",
"M  c #2B67A3",
"N  c #326AA2",
"B  c #3270A9",
"V  c #4C4980",
"C  c #44578F",
"Z  c #435583",
"A  c #435A91",
"S  c #585790",
"D  c #634581",
"F  c #63518D",
"G  c #53678C",
"H  c #486A9B",
"J  c #5A6C90",
"K  c #49759A",
"L  c #6F7983",
"P  c #7D7E82",
"I  c #737B88",
"U  c #697FAE",
"Y  c #894381",
"T  c #C97688",
"R  c #798291",
"E  c #7F91B7",
"W  c #7397BB",
"Q  c #7BA1AE",
"!  c #7AA2C6",
"~  c #838C9B",
"^  c #9B9C9E",
"/  c #87888A",
"(  c #9699A7",
")  c #8593B0",
"_  c #9A9EB9",
"`  c #9889A6",
"'  c #9CA6B6",
"]  c #9EABBD",
"[  c #95A2B2",
"{  c #A5A6A8",
"}  c #A8A9AB",
"|  c #A0A4A5",
" . c #B6A2AD",
".. c #A6ACBB",
"X. c #A9AEBD",
"o. c #ACB1BD",
"O. c #AEB2B3",
"+. c #B7B8BA",
"@. c #B9BBBA",
"#. c #D3868C",
"$. c #DA989A",
"%. c #E28F87",
"&. c #E8A288",
"*. c #D395A2",
"=. c #DDA9B5",
"-. c #96A7C5",
";. c #A7AEC3",
":. c #A9B0C0",
">. c #A6B1CF",
",. c #B0B6C4",
"<. c #B8B8C2",
"1. c #B2BFCF",
"2. c #C4BAC2",
"3. c #E6B9C0",
"4. c #BFC2C7",
"5. c #B3C1CC",
"6. c #BCC4CD",
"7. c #B3C2D1",
"8. c #BCC4D9",
"9. c #C4C2C4",
"0. c #C5C6CA",
"q. c #C4C8CC",
"w. c #CCCCCC",
"e. c #D5C4CA",
"r. c #C0CAD6",
"t. c #CBCDD4",
"y. c #C9D0D6",
"u. c #D2D2D2",
"i. c #DCD2D3",
"p. c #D5D7DB",
"a. c #DBDCDD",
"s. c #E4CAD3",
"d. c #E3D8DC",
"f. c #DEE1DA",
"g. c #C3CEE0",
"h. c #CCD8E2",
"j. c #DEDFE1",
"k. c #D6DEE9",
"l. c #D1DAE3",
"z. c #DDE0E4",
"x. c #DAE1E9",
"c. c #E3E4E5",
"v. c #ECE6E6",
"b. c #E6E8E7",
"n. c #E8E8E6",
"m. c #E6E7E9",
"M. c #E8E7EC",
"N. c #E7E8EA",
"B. c #E9E9EB",
"V. c #EDEEF2",
"C. c #F2EFF4",
"Z. c #EEF1F3",
"A. c #F1F2F4",
"S. c #FEFEFE",
/* pixels */
"N.N.N.N.N.N.N.N.N.N.N.N.N.N.N.N.N.N.N.N.N.N.N.N.M.N.N.N.N.N.N.N.N.N.N.N.N.N.N.N.N.N.N.N.N.N.N.N.N.N.",
"N.N.N.N.N.N.N.N.N.N.N.N.N.N.N.N.N.N.N.N.N.N.B.N.N.M.N.N.N.N.N.N.N.N.N.N.N.N.N.N.N.N.N.N.N.N.N.N.N.N.",
"N.N.N.N.N.N.N.N.N.N.N.N.N.N.N.N.N.N.N.N.N.N.N.N.N.N.b.N.N.N.N.N.N.N.N.N.N.N.N.N.N.N.N.N.N.N.N.N.N.N.",
"N.N.N.N.N.N.N.N.N.N.N.N.N.N.N.N.N.N.N.N.N.N.N.N.N.b.N.N.N.N.N.N.N.N.N.N.N.N.N.N.N.N.N.N.N.N.N.N.N.N.",
"N.N.N.N.N.N.N.N.N.N.N.N.N.N.N.N.N.N.N.N.N.N.N.b.N.N.N.N.N.N.N.N.N.N.N.N.N.N.N.N.N.N.N.N.N.N.N.N.N.N.",
"N.N.N.N.N.N.N.N.N.N.N.N.N.N.N.N.N.N.N.N.c.p.t.<.o.o.,.4.0.z.N.N.N.N.N.N.N.N.N.N.N.N.N.N.N.N.N.N.N.N.",
"N.N.N.N.N.N.N.N.N.N.N.N.N.N.N.N.N.N.N.M.q.H k a p , > 8./ 0.M.N.N.N.N.N.N.N.N.N.N.N.N.N.N.N.N.N.N.N.",
"N.N.N.N.N.N.N.N.N.N.N.N.N.N.N.N.N.M.N.N.6.K n d p p v g.P q.M.N.N.N.N.N.N.N.N.N.N.N.N.N.N.N.N.N.N.N.",
"N.N.N.N.N.N.N.N.N.N.N.N.N.N.N.N.N.N.n.N.y.Q n i i p H h.P 0.N.N.N.N.N.N.N.N.N.N.N.N.N.N.N.N.N.N.N.N.",
"N.N.N.N.N.N.N.N.N.N.N.N.N.N.N.N.N.N.N.m.7.N c i i s U x.8 0.M.N.N.N.N.N.N.N.N.N.N.N.N.N.N.N.N.N.N.N.",
"N.N.N.N.N.N.N.N.N.N.N.N.N.N.N.N.N.N.N.m.7.m c i i i E m.8 0.M.N.N.N.N.N.N.N.N.N.N.N.N.N.N.N.N.N.N.N.",
"N.N.N.N.N.N.N.N.N.N.N.N.N.N.N.N.N.N.N.N.7.M c i i f >.N.8 0.N.N.N.N.N.N.N.N.N.N.N.N.N.N.N.N.N.N.N.N.",
"N.N.N.N.N.N.N.N.N.N.N.N.N.N.N.N.N.N.N.N.7.N u a y z 5.N.8 q.N.N.N.N.N.N.N.N.N.N.N.N.N.N.N.N.N.N.N.N.",
"N.N.N.N.N.N.N.N.N.N.N.N.N.N.N.N.N.N.N.m.5.S x p ; V *.f.7 9.N.N.N.N.N.N.N.N.N.N.N.N.N.N.N.N.N.N.N.N.",
"N.N.N.N.N.N.N.N.N.N.N.N.N.N.N.N.N.N.N.N.1.Y : - 0 5 T *.q 2.N.N.N.N.N.N.N.N.N.N.N.N.N.N.N.N.N.N.N.N.",
"N.N.N.N.N.N.N.N.N.N.N.N.N.N.N.N.N.N.M.b.7.F D = * ` 3.=.r 9.N.N.N.N.N.N.N.N.N.N.N.N.N.N.N.N.N.N.N.N.",
"N.N.N.N.N.N.N.N.N.N.N.N.N.N.N.N.N.N.N.N.6.B b 6 &.t $.i.L 6.N.N.N.N.N.N.N.N.N.N.N.N.N.N.N.N.N.N.N.N.",
"N.N.N.N.N.N.N.N.N.N.N.N.N.N.N.N.N.N.N.m.m.V.d.#.%.w e = + :.N.N.N.N.N.N.N.N.N.N.N.N.N.N.N.N.N.N.N.N.",
"N.N.N.N.N.N.N.N.N.N.N.N.N.N.N.N.N.N.M.N.c.i.e.s. .4 3 3 # :.N.N.N.N.N.N.N.N.N.N.N.N.N.N.N.N.N.N.N.N.",
"N.N.N.N.N.N.N.N.N.N.N.N.N.N.N.N.N.N.N.N.c.B.B.v._ i & < @ X.N.N.N.N.N.N.N.N.N.N.N.N.N.N.N.N.N.N.N.N.",
"N.N.N.N.N.N.N.N.N.N.N.N.N.N.N.N.N.N.N.N.b.Z.Z.N.J s i i @ X.b.N.N.N.N.N.N.N.N.N.N.N.N.N.N.N.N.N.N.N.",
"N.N.N.N.N.N.N.N.N.N.N.N.N.N.N.N.N.N.N.N.b.Z.V.a.Z d i p $ ..b.N.N.N.N.N.N.N.N.N.N.N.N.N.N.N.N.N.N.N.",
"N.N.N.N.N.N.N.N.N.N.N.N.N.N.N.N.N.N.N.N.b.A.C.6.l d i a $ ..N.N.N.N.N.N.N.N.N.N.N.N.N.N.N.N.N.N.N.N.",
"N.N.N.N.N.N.N.N.N.N.N.N.N.N.N.N.N.N.N.N.c.A.C.;.j i i p @ ..N.N.N.N.N.N.N.N.N.N.N.N.N.N.N.N.N.N.N.N.",
"N.N.N.N.N.N.N.N.N.N.N.N.N.N.N.N.N.N.m.N.a.h.l.) C A A A % o.N.N.N.N.N.N.N.N.N.N.N.N.N.N.N.N.N.N.N.N.",
"N.N.N.N.N.N.N.N.N.N.N.N.N.N.N.N.N.M.N.N.r.W ! -.] [ ' ] 2 ( 9.w.p.b.N.N.N.N.N.N.N.N.N.N.N.N.N.N.N.N.",
"N.N.N.N.N.N.N.N.N.N.N.N.N.N.N.N.N.N.B.N.x.V.k.G < p g h +   . . . o ^ b.N.N.N.N.N.N.N.N.N.N.N.N.N.N.",
"N.N.N.N.N.N.N.N.N.N.N.N.N.N.N.N.N.N.M.N.j.p.u.' ( ~ R I 1 X . . X O 9 a.N.N.N.N.N.N.N.N.N.N.N.N.N.N.",
"N.N.N.N.N.N.N.N.N.N.N.N.N.N.N.N.N.N.N.N.N.c.z.j.p.t.0.@.{ | } O.+.9.c.N.N.N.N.N.N.N.N.N.N.N.N.N.N.N.",
"N.N.N.N.N.N.N.N.N.N.N.N.N.N.N.N.N.N.N.N.N.N.N.N.N.N.N.N.N.N.M.N.N.N.N.N.N.N.N.N.N.N.N.N.N.N.N.N.N.N.",
"N.N.N.N.N.N.N.N.N.N.N.N.N.N.N.N.N.N.N.N.N.N.N.N.N.N.N.B.N.N.N.N.N.N.N.N.N.N.N.N.N.N.N.N.N.N.N.N.N.N.",
"N.N.N.N.N.N.N.N.N.N.N.N.N.N.N.N.N.N.N.N.N.N.N.N.N.N.N.N.N.N.N.N.N.N.N.N.N.N.N.N.N.N.N.N.N.N.N.N.N.N.",
"N.N.N.N.N.N.N.N.N.N.N.N.N.N.N.N.N.N.N.b.b.N.N.N.N.b.b.b.N.N.N.N.N.N.N.b.N.N.N.N.N.N.N.N.N.N.N.N.N.N.",
"A.A.A.A.A.A.A.A.A.A.A.A.A.A.A.Z.A.A.A.A.A.A.Z.A.Z.A.A.V.V.Z.V.Z.B.B.V.A.A.A.A.A.A.A.A.A.A.A.A.A.A.A.",
"S.S.S.S.S.S.S.S.S.S.S.S.S.S.S.9.a.a.u.u.u.b.w.c.u.0.B.u.w.u.u.u.9.u.u.S.S.S.S.S.S.S.S.S.S.S.S.S.S.S.",
"S.S.S.S.S.S.S.S.S.S.S.S.S.S.S.a.N.c.j.c.c.B.c.c.c.a.A.p.c.A.b.B.b.B.b.S.S.S.S.S.S.S.S.S.S.S.S.S.S.S."
};
