/* XPM */
static char *d52b788725c04da6a07ff2abb57eecf3[] = {
/* columns rows colors chars-per-pixel */
"50 26 194 2 ",
"   c #020D06",
".  c #030F09",
"X  c #031007",
"o  c #02130B",
"O  c #0B140D",
"+  c #031A0E",
"@  c #0C1511",
"#  c #041C11",
"$  c #0A1C14",
"%  c #0E1819",
"&  c #141C16",
"*  c #1B1E19",
"=  c #0E2219",
"-  c #092114",
";  c #12231C",
":  c #1B221C",
">  c #172E1E",
",  c #1D2A22",
"<  c #252726",
"1  c #252926",
"2  c #2C2B27",
"3  c #262B2A",
"4  c #2A2D2C",
"5  c #262729",
"6  c #342E2C",
"7  c #392F2B",
"8  c #25332C",
"9  c #2A352D",
"0  c #28382D",
"q  c #35312C",
"w  c #3B342C",
"e  c #2B2F30",
"r  c #2C3333",
"t  c #283B35",
"y  c #3A3532",
"u  c #3B3935",
"i  c #333738",
"p  c #343C39",
"a  c #383E38",
"s  c #483016",
"d  c #45392C",
"f  c #493B2E",
"g  c #553B27",
"h  c #433B36",
"j  c #4C3C32",
"k  c #403F3A",
"l  c #513F39",
"z  c #33433D",
"x  c #3B403A",
"c  c #55422E",
"v  c #59412E",
"b  c #43423E",
"n  c #4B433C",
"m  c #534334",
"M  c #554439",
"N  c #5A483A",
"B  c #644B39",
"V  c #684B37",
"C  c #6D533C",
"Z  c #3C4644",
"A  c #3C4B47",
"S  c #3E4C4A",
"D  c #354842",
"F  c #434544",
"G  c #4A4643",
"H  c #474843",
"J  c #4B4A46",
"K  c #454749",
"L  c #46494A",
"P  c #4D4C4A",
"I  c #5C4541",
"U  c #514A42",
"Y  c #5A4D45",
"T  c #524F4A",
"R  c #504541",
"E  c #4E504D",
"W  c #40514B",
"Q  c #5C5044",
"!  c #53524C",
"~  c #4E4F51",
"^  c #4E5655",
"/  c #4E5956",
"(  c #4F5458",
")  c #545452",
"_  c #575853",
"`  c #5C5A55",
"'  c #525A5A",
"]  c #5D5C59",
"[  c #624644",
"{  c #684C40",
"}  c #634E46",
"|  c #6B5545",
" . c #6E534E",
".. c #695948",
"X. c #70584C",
"o. c #73524B",
"O. c #635750",
"+. c #635A53",
"@. c #605E5A",
"#. c #685F58",
"$. c #6E5A53",
"%. c #75654E",
"&. c #64625D",
"*. c #6D655D",
"=. c #786757",
"-. c #75695F",
";. c #7B695F",
":. c #726657",
">. c #5E5F61",
",. c #5D6766",
"<. c #656563",
"1. c #6B6562",
"2. c #6C6A64",
"3. c #656A6B",
"4. c #6E6D6B",
"5. c #746C64",
"6. c #796B63",
"7. c #736D6A",
"8. c #7B6D6B",
"9. c #706664",
"0. c #727265",
"q. c #7A7467",
"w. c #75726D",
"e. c #7B746C",
"r. c #7F796B",
"t. c #736F70",
"y. c #7C6D70",
"u. c #6C7171",
"i. c #6C7676",
"p. c #757473",
"a. c #7A7471",
"s. c #7C7B75",
"d. c #76767B",
"f. c #78777B",
"g. c #777A7B",
"h. c #7B7B7B",
"j. c #844A3F",
"k. c #997D2A",
"l. c #9C7F33",
"z. c #864740",
"x. c #894B40",
"c. c #836946",
"v. c #89764E",
"b. c #927E43",
"n. c #896E50",
"m. c #827356",
"M. c #806F67",
"N. c #816F6D",
"B. c #81766D",
"V. c #80796F",
"C. c #8A7665",
"Z. c #93746B",
"A. c #917166",
"S. c #847771",
"D. c #847C73",
"F. c #897D75",
"G. c #807778",
"H. c #827E7A",
"J. c #8C8175",
"K. c #84827C",
"L. c #8B837C",
"P. c #92867B",
"I. c #96887C",
"U. c #7D7D80",
"Y. c #817F85",
"T. c #7E8181",
"R. c #848383",
"E. c #8B8482",
"W. c #8B8A85",
"Q. c #84848A",
"!. c #888689",
"~. c #8D8D8A",
"^. c #918783",
"/. c #938C84",
"(. c #9A8D84",
"). c #938D8B",
"_. c #91918E",
"`. c #94928C",
"'. c #9A948D",
"]. c #8B8A93",
"[. c #959491",
"{. c #949293",
"}. c #9A9693",
"|. c #9A9A96",
" X c #939298",
".X c #9C9B99",
"XX c #A1A09E",
"oX c #9D9DA4",
"OX c #9599A2",
"+X c #AFA8A2",
"@X c #A3A5AB",
"#X c #B6B3AE",
"$X c #B7B6B4",
"%X c #D0CBC7",
/* pixels */
"X X X X X o o o o o + + + + + + + + + - # > t D A W A z 8 $ # # # # + + # # # o o o o o o X X X X X ",
"X X X o X o o o o + + + + + + + + - ; S i.U.U.U.T.T.R.H.h.h.,.8 = + + + + # + o o o o o o o o X X X ",
"X X o X X o o o o + o o + + + # 8 / p.h.L.L.L.L.L.L.^.L.L.E.H.h.3.S = # + + + o o + o o o o X X X X ",
"X X X o X o o o o o o o o + $ A g.f.S.J.J./.`.'.#X%X+X'.`.P.I.I.L.R.u., # + o o o o o o o o X X X X ",
"X X X X X o o o o o o o + ; ' U.s.D.F.D.K.W.~.[.[..X}.}.[.~././.(.P.E.d.Z + + o o o o o o o o X X X ",
"X X X X X o o o o o + + ; 3.f.V.D.e.w.s.K.W.)._..X$XXX|.[.{.~.K.K.W.(.E.R.( $ o + o o o X X X X X X ",
"X X X X X o o o o o + ; ,.f.q.8.2.7.w.s.h.K.W.~._.W.[.{._.~.W.R.h.p.H.(.J.U.A $ o o o o o o X X X X ",
"X X X X X o o o o o $ ' p.8.e.a.4.8.p.w.p.s.K.W.~.s.~._.~.!.H.h.H.s.a.K.(.^.!.p # o o o X X X X X X ",
". o . . X o o o o o Z d.q.N.H.R.W.h.2.2.4.` s.R.W.W._._.W.@.7.w.p.W.|.).L.(.E.u.; o o o o o X o o . ",
". o X X X o o o o : <.a.=.C.H.E.K.6.s.s._ E &.2.` 7.` w.p.J <.s.L.e.).`.L.A.P.K.^ r 9 9 0 8 8 & o . ",
". . . X X X X X o L w.8.o.j.F.L.2.g V s.H.x p _ _ ! ! &.] 9 4.K.X.s ;.).Z.x.C.L.R.oX@X@X@X@X@Xi.@ . ",
"o . X X X X X o $ p.a.6. .j.F.H.*.{ | H.s.+.*.s.#.*.s./.H.J H.~.$.B -.W.Z.z.O.L.E. XoXoXoXoXoXOX% . ",
". . . . X X X o z f.e.q.D.F.E.H.s.H.7.K.H.*.L.H.q.r.L./.s.+.e.K.s.K.s.K./.D.a.B.L.]. X X X].].].r . ",
". X . o o X X O ' s.5.L.q.5.7.e.K.H.7.K.s.1.s.0.0.w.H.R.a.e.2.w.w.H.K.0.0.0.e.D.L.!.Q.Q.Q.Q.Q.Y.i X ",
".   . . o X X O 3.a.e.K.H.K.K.s.H.s.@.s.w.&.q.:.#.+.*.5.*.*.` 0.2.w.s.a.K.K.a.e.F.R.Q.R.U.Y.Q.Y.i   ",
"    X X X X X @ f.8.D.H.H.K.s.e.s.e.1.7.@.Y m n h h n U U N U &.2.2.a.w.H.K.a.w.S.H.f.' / ^ ^ ^ , . ",
". . . . . o . O f.6.D.H.H.J.r.7.7.1.] O.m f w b J ] &.` J d c Q #.&.7.2.a.K.a.0.e.D.p.@ .     .     ",
". . . . . o o : h.6.D.H.s.b.m.2.1.` N N g w J ! &.p.w.<.! u d g Q Y &.&.4.s.w.0.q.B.h.@ . . .       ",
"        . o X 3 f.6.a.s.C.k.l.+.Y ..v j 7 b J ` 2.s.p.2.` P y f v | Y ` 2.w.7.7.5.S.f.@ . .         ",
"        .   X 3 h.6.w.p.C.v.c.X.B v f w b P T ] 2.p.w.4.] ! b 2 j g B Y O.9.1.2.2.S.h.@ . .         ",
"            . 1 h.6.w.7.1.O.%.B v m q b H J _ &.w.K.a.w.&._ P b 6 M v C I Y &.1.9.S.g.@ . .   .     ",
"        .     < h.-.9.O.n Y n.B m w k J ! ! ` &.4.s.s.w.2.` _ P u q l V B l R +.1.S.f.@             ",
"              < h.-.} [ [  .c.N 7 a H T T _ &.2.w.H.s.p.2.] _ _ J 2 y { { I I I +.S.h.@             ",
"            . 1 U.7.4.7.7.7.1.h u P T ! ! ] <.w.f.R.h.s.w.<.` _ P ! 6 G 7.y.y.8.8.G.h.@             ",
"              < h.h.h.h.f.f.4.2 u ) ] ! ` >.<.4.f.f.f.f.4.2.] ) _ J < H h.T.R.R.T.U.h.O         .   ",
"              & K L K L F P F * : 1 3 1 3 4 4 4 4 4 r e e 4 4 4 4 5 * 4 P ~ ) ) ) ) P O             "
};
