/* XPM */
static char *fcc35f90b1ea40608637eea6d1ec5afc[] = {
/* columns rows colors chars-per-pixel */
"50 28 112 2 ",
"   c #1E1E1E",
".  c #24231F",
"X  c #1F2425",
"o  c #242424",
"O  c #282627",
"+  c #292927",
"@  c #262628",
"#  c #272928",
"$  c #292929",
"%  c #3E2022",
"&  c #3E2A26",
"*  c #3F292B",
"=  c #333333",
"-  c #3A3332",
";  c #3E3B34",
":  c #3C3C3C",
">  c #43211E",
",  c #461F24",
"<  c #432223",
"1  c #4A2324",
"2  c #412927",
"3  c #412728",
"4  c #4E272A",
"5  c #442C2C",
"6  c #4A2A28",
"7  c #433332",
"8  c #4B3131",
"9  c #413936",
"0  c #433B3C",
"q  c #483E3F",
"w  c #43423F",
"e  c #443F42",
"r  c #3E4241",
"t  c #424242",
"y  c #494544",
"u  c #4C4C4C",
"i  c #514B4B",
"p  c #545454",
"a  c #5C5C5C",
"s  c gray38",
"d  c #6D6D6D",
"f  c gray48",
"g  c #D51625",
"h  c #D51E23",
"j  c #D91D25",
"k  c #C92027",
"l  c #CA252C",
"z  c #CA2A2C",
"x  c #D22124",
"c  c #D82125",
"v  c #D4232A",
"b  c #CD2E33",
"n  c #DD323A",
"m  c #E03432",
"M  c #BF3C41",
"N  c #C33C42",
"B  c #E73E45",
"V  c #EC3A46",
"C  c #BE7E7D",
"Z  c #D84B53",
"A  c #DC4B58",
"S  c #E5565C",
"D  c #E75760",
"F  c #D77C7B",
"G  c #DC7A7B",
"H  c #9B9B9B",
"J  c #A7A7A7",
"K  c #ACACAC",
"L  c gray70",
"P  c #BCBCBC",
"I  c #FF8286",
"U  c #FF838B",
"Y  c #FA8B94",
"T  c #DCABAD",
"R  c #D3BFBE",
"E  c #E7A7A8",
"W  c #EAA8A9",
"Q  c #E3B2AD",
"!  c #E8ADB3",
"~  c #E4B4B5",
"^  c #CFC0BD",
"/  c #C3C3C3",
"(  c #F3C4C4",
")  c #E6D3CF",
"_  c #E4D0D1",
"`  c #EBD6D7",
"'  c #EBD7D8",
"]  c #E3DFDC",
"[  c #E6DDDE",
"{  c #EDD9D8",
"}  c #E1E0DE",
"|  c #E0E2DF",
" . c #E2E0E1",
".. c #E3E3E1",
"X. c #E1E3E2",
"o. c gray89",
"O. c #E4E3E1",
"+. c #E4E2E3",
"@. c #E3E5E2",
"#. c #E2E4E3",
"$. c #E6E5E3",
"%. c #E2E2E4",
"&. c #E1E2E6",
"*. c #E5E3E4",
"=. c #E5E3E6",
"-. c #E1E5E4",
";. c #E0E4E5",
":. c #E4E4E4",
">. c gray90",
",. c #E6E4E5",
"<. c #E4E6E5",
"1. c #E5E5E7",
/* pixels */
"h T %.%.Q j c G =.>.` b x D ] X.[ N h x R >.#.Y j v W +.X.~ j h U +.#.) l h B ' X.} Z h n ( X.+.C j ",
"1 0 t t ; > , 7 t t e < > 6 r t t * 3 < : t t 7 < 1 9 t t 0 < < 8 w t t 1 % 1 e w r & < 4 q t t - 1 ",
"o o o o o o o o o o o o o o o . o # o o o . o o o X o o o o X o o o # o o o o o . o o o o o o o o o ",
"o o o o o o o # o o o o o o o o o o o o o o o o o o o o o o o o o o o o o o o o o o o o o o o o o o ",
"o o o o o o o o o o o o o o o o o o o o o o o @ # o o o o o o o o o o o o o o o o o o o o o o o o o ",
"o o o o o o o o o o o o o o o o o o o o o o o # o o o o o o o o o o o o o o o o # o o o o o o o o o ",
"o o o o o o o o o o o o o # o o o o o o o o o o o o o o o o # o o o o o o o o o o o o o o o o o o o ",
"o o o # # o o o o o o o $ o o o o o o o # # o o o o o o o # o o o o o o o o # o o o o o o o # o o o ",
"p p $ = p p p p = o p a p p u o u p p p p # t p p p p o o p p p p : o p p a p u o u p p p p o : p p ",
"/ / : u / / / / a o P / / / K o J / / / / # H / / / / o o / / / / f # / / / / H o L / / / P   d / / ",
"# o o o # # # # o # o o # # # o o # # # o o o o # # $ o o o # # # o o o o # # o o o # $ # o o o # # ",
"o o o o o o o o o o o o o o o o o o o o o o o o o o o o o o o o o o o o o o o o o o # o o o o o o o ",
"o o o o o o o o o o o o o o o o # o o o o o o o o o o o o o o o o o o o o o o o o o o o o o o o o o ",
"o o o o o o o o o o o o o o # # o o o o o o o o o o o o o o o # # o o o o o o o o o o o o o o o o # ",
"o o o o o # o o o o o o o o o o o o o o o o o o o o o o o o o # o o o o o o o o o o o o o o o o # o ",
"o o o o # o o o o o o o o # o o o o o o o # o o o o o o o o # o o o o o o o # o o o o o o o o o o o ",
"$ = o # o o o o o o o o # o o o o o o o o o o o o o o o # o o o o o o o o # o o o o o o o o # o o o ",
"= : # o o # # o o o o # # # o o o o o $ # o o o # # # o # o # # o o o o $ # # o o o o # # $ o o o # ",
"/ P : u / / / / a o P / / / K o J / / / / o H / / / /   o / / / / f # / / / / H o L / / / P   d / / ",
"s s $ $ p p p p = o p p p p u o u p p p p o t p p p p o o p p p p : # p p p p u o u p p p p o : p p ",
"= = o o o o o o # o o o o o o o o o o o o o o o o o o o o o o o o o o o o o o o o o o o o o o o o o ",
"$ = o o o o # o o o o o o o o o o o o o o o o o # o o o o o o o o o o o o o o o o o o o o o o o o o ",
"$ : o o o o o o o o o o o o # o o o o o o o o # o o o o o o o o o o o o o o o o # o o o o o o o o o ",
"= : o o o # o o o o o o o # o o o o o o o o # o o o o o o o # o o o o o o o o o o o o o o o o # o o ",
"# = o o # o o o o o o o o o o o o o o o + # o o o o o o o # # o o o o o o o # o o o o o o o # o o o ",
"= : o o o o o o o o o # o o o o o o o o # o o o o o o o # o o o o o o o o o o o o o o o o O o o o o ",
"8 i t t 0 < < 7 t t y < < 5 t t t & < < : t t 7 < < 0 t t 0 < < 8 t t 0 < 1 1 0 t t 2 < 6 q t t - < ",
"v T ;.>.! x x F =.>.` z j S } >.[ M j g ^ #.=.Y c x E $.>.~ h h I >.>._ k j V { ;.X.A v m ( >.X.C h "
};
