/* XPM */
static char *_025aa6148da4ce38ddca3b61abd0fdc[] = {
/* columns rows colors chars-per-pixel */
"50 37 187 2 ",
"   c #151615",
".  c #171817",
"X  c #161619",
"o  c #1C1D1C",
"O  c #201F1D",
"+  c #15251A",
"@  c #1C231D",
"#  c #21211E",
"$  c #1C1D21",
"%  c #1D1F28",
"&  c #221C21",
"*  c #1E2322",
"=  c #1B252B",
"-  c #1A2A2C",
";  c #182A36",
":  c #1C3338",
">  c #222423",
",  c #232A25",
"<  c #2C2B27",
"1  c #25272A",
"2  c #2B2929",
"3  c #2B2C2B",
"4  c #322827",
"5  c #2C322D",
"6  c #2E2F31",
"7  c #292D35",
"8  c #302F32",
"9  c #2C3332",
"0  c #21333B",
"q  c #293738",
"w  c #343434",
"e  c #383638",
"r  c #3A3B3C",
"t  c #5D1E2E",
"y  c #403F3F",
"u  c #76263E",
"i  c #3B403F",
"p  c #173649",
"a  c #193D52",
"s  c #203743",
"d  c #223A45",
"f  c #263B46",
"g  c #303943",
"h  c #413F41",
"j  c #1B4557",
"k  c #22414F",
"l  c #3D4242",
"z  c #214555",
"x  c #224C5C",
"c  c #0E4269",
"v  c #134763",
"b  c #1C496A",
"n  c #0E516E",
"m  c #1E5468",
"M  c #0D517E",
"N  c #244F63",
"B  c #25566A",
"V  c #24576B",
"C  c #395A65",
"Z  c #245777",
"A  c #355D70",
"S  c #434141",
"D  c #454845",
"F  c #4C4C4D",
"G  c #555555",
"H  c #575A57",
"J  c #5A5A5A",
"K  c #505C68",
"L  c #6E5C61",
"P  c #556167",
"I  c #656264",
"U  c #6C6D6D",
"Y  c #706E6F",
"T  c #70706E",
"R  c #62717B",
"E  c #737473",
"W  c #797374",
"Q  c #7D7C7D",
"!  c #972245",
"~  c #8B3E4E",
"^  c #9F5B6D",
"/  c #9B606F",
"(  c #7F817F",
")  c #0A5688",
"_  c #175D85",
"`  c #0D5F99",
"'  c #185E90",
"]  c #255F85",
"[  c #385480",
"{  c #255E93",
"}  c #1E6382",
"|  c #186599",
" . c #146A9C",
".. c #1F7394",
"X. c #246783",
"o. c #2F6780",
"O. c #216A8D",
"+. c #386A87",
"@. c #2B6D95",
"#. c #277998",
"$. c #387D97",
"%. c #066CAD",
"&. c #0C6AA9",
"*. c #166FAA",
"=. c #056FB3",
"-. c #0772B1",
";. c #0974B6",
":. c #0575BC",
">. c #0978BA",
",. c #2477A3",
"<. c #277DB8",
"1. c #4C6D8F",
"2. c #4B788C",
"3. c #577B8E",
"4. c #0177C0",
"5. c #077BC2",
"6. c #2D819C",
"7. c #0F80BB",
"8. c #1287BE",
"9. c #1F91BF",
"0. c #2C83A9",
"q. c #3280A4",
"w. c #258BB3",
"e. c #2D8DB3",
"r. c #248CBC",
"t. c #2B8BBA",
"y. c #3284B6",
"u. c #338EB6",
"i. c #3C97BF",
"p. c #76939F",
"a. c #5091B9",
"s. c #649ABF",
"d. c #53A0B9",
"f. c #1C92C8",
"g. c #2493C2",
"h. c #2D93C4",
"j. c #2695CB",
"k. c #2A96C8",
"l. c #269BCC",
"z. c #2B9CCB",
"x. c #339BC7",
"c. c #239DD3",
"v. c #2A9ED0",
"b. c #1FA3DB",
"n. c #35A2CD",
"m. c #25A2D6",
"M. c #2BA2D4",
"N. c #26A6DB",
"B. c #2AA5DB",
"V. c #25A9DD",
"C. c #2AA9DD",
"Z. c #34A1D1",
"A. c #34AADA",
"S. c #3BB1DB",
"D. c #2DA7E0",
"F. c #27ABE1",
"G. c #2AAAE1",
"H. c #50ABD1",
"J. c #46B4DE",
"K. c #4ABAE4",
"L. c #65BBE1",
"P. c #858384",
"I. c #89898A",
"U. c #958187",
"Y. c #949594",
"T. c #9C9C9D",
"R. c #9AB1BA",
"E. c #A2A3A4",
"W. c #A9AAAA",
"Q. c #AFB0B0",
"!. c #B9B9B9",
"~. c #8FBBCE",
"^. c #B7BFC4",
"/. c #ADD0DE",
"(. c #B6D1DE",
"). c #9ED5EA",
"_. c #A6D8EB",
"`. c #B6D8E7",
"'. c #DBDCDC",
"]. c #C1DEED",
"[. c #D6E8EF",
"{. c #E3E3E3",
"}. c #E5E9EC",
"|. c #EBF1F3",
" X c #EAF3F7",
".X c #F6F6F6",
"XX c #FFFFFF",
/* pixels */
"XXXXXXXXXXXXXXXXXXXXXXXXXXXXXXXXXXXXXXXXXXXXXXXXXXXXXXXXXXXXXXXXXXXXXXXXXXXXXXXXXXXXXXXXXXXXXXXXXXXX",
"XXXXXXXXXXXXXXXXXXXXXXXXXXXXXXXXXXXXXXXXXXXXXXXXXXXXXXXXXXXXXXXXXXXXXXXXXXXXXXXXXXXXXXXXXXXXXXXXXXXX",
"XXXXXXXXXXXXXXXXXXXXXXXXXXXXXXXXXXXXXXXXXXXXXXXXXXXXXXXXXXXXXXXXXXXXXXXXXXXXXXXXXXXXXXXXXXXXXXXXXXXX",
"XXXXXXXXXXXXXXXXXXXXXXXXXXXXXXXXXXXXXXXXXXXXXXXXXXXXXXXXXXXXXXXXXXXXXXXXXXXXXXXXXXXXXXXXXXXXXXXXXXXX",
"XXXXXXXXXXXXXXXXXXXXXXXXXXXXXXXXXXXXXXXXXXXXXXXXXXXXXXXXXXXXXXXXXXXXXXXXXXXXXXXXXXXXXXXXXXXXXXXXXXXX",
"XXXXXXXXXXXXXXXXXXXXXXXXXXXXXXXXXXXXXXXXXXXXXXXXXXXXXXXXXXXXXXXXXXXXXXXXXXXXXXXXXXXXXXXXXXXXXXXXXXXX",
"XXXXXXXXXXXXXXXXXXXXXXXXXXXXXXXXXXXXXXXXXXXXXXXXXXXXXXXXXXXXXXXXXXXXXXXXXXXXXXXXXXXXXXXXXXXXXXXXXXXX",
"XXXXXXXXXXXXXXXXXXXXXXXXXXXXXXXXXXXXXXXXXXXXXXXXXXXXXXXXXXXXXXXXXXXXXXXXXXXXXXXXXXXXXXXXXXXXXXXXXXXX",
"XXXXXXXXXXXXXXXXXXXXXXXXXXXXXXXXXXXXXXXXXXXXXXXXXXXXXXXXXXXXXXXXXXXXXXXXXXXXXXXXXXXXXXXXXXXXXXXXXXXX",
"XXXXXXXXXXXXXXXXXXXXXXXXXXXXXXXXXXXXXXXXXXXXXXXXXXXXXXXXXXXXXXXXXXXXXXXXXXXXXXXXXXXXXXXXXXXXXXXXXXXX",
"XXXXXXXXXXXXXXXXXXXXXXXXXXXXXXXXXXXXXXXXXXXXXXXXXXXXXXXXXXXXXXXXXXXXXXXXXXXXXXXXXXXXXXXXXXXXXXXXXXXX",
"XXXXXXXXXXXXXXXXXXXXXXXXXXXXXXXXXXXX[.`._._.).)._.]. XXXXXXXXXXXXXXXXXXXXXXXXXXXXXXXXXXXXXXXXXXXXXXX",
"XXXXXXXXXXXXXXXXXXXXXXXXXXXX'.~.L.K.S.A.n.e.#.#.u.S.J.2.Y |.XXXXXXXXXXXXXXXXXXXXXXXXXXXXXXXXXXXXXXXX",
"XX!.H F G I.'.XXXX.X|.^.R A ,.k.z.6.x 0 3 3 3 < < 7 f q.Z 7 I {..XXXXXXXXXXXXXXXXXXXXXXXXXXXXXXXXXXX",
".XW.G > 2 y 3 W.R.2.]  .| O.B g i S 2 3 3 r h h S S r w f o.d r Y.'.XXXXXXXXXXXXXXXXXXXXXXXXXXXXXXXX",
"XXXX{.!.Q g b | &.;.:. .a 9 6 6 3 3 2 3 1 > w w w w w w }  ...+.F U !.XXXXXXXXXXXXXXXXXXXXXXXXXXXXXX",
"|.a.y.<.*.;.:.;.:.4.:.5.7.8.r.g.h.e.#.X.B x x z a 0 - - u.B.j.n i.K P p.(.`.|.XXXXXXXXXXXXXXXXXXXXXX",
"}.1.{ '  .&.:.4.;.,.@.@.,.<.f.b.N.N.N.c.B.B.V.N.N.N.N.C.m.$.u.Z.D.C.F.B.t.h.C.C.C.A.A.H./.{..XXXXXXX",
"s.+.Z b v ) =.%.M p ; : a _ f.c.c.m.m.z.g.f.m.m.m.m.m.m.m.z.z.m.C.C.B.M.y.t.k...} O.w.C.Z.3.E.{.XXXX",
":.;.=.%.%.;.-.c = @ + @ @ = v c.C.G.C.B.m.m.G.G.G.G.G.G.G.G.G.G.D.C.V.C.N.#.: % > @ - m z.x.a.R.~. X",
";.=.:.4.;.%.) o @ t u ! t > & #.V.G.V.m.F.G.G.G.G.G.G.G.G.G.G.G.G.C.C.C.t.- , * O # > $ C d.9.B.C.B.",
"{ ` %.:.4.:.p * 1 L U.W U.< * j m.F.G.m.C.G.C.F.C.G.G.G.G.G.G.G.G.C.C.G.Z # # ~ / ^ 4 @ : r.c.C.B.B.",
"[ ] ` :.4.;.; > w U E P.I.S + p c.N.M.v.l.M.B.B.B.B.C.C.D.D.G.C.G.C.C.C.; @ 5 W W P.I o * 0.G.G.N.l.",
"r q z %.>.-.- > 5 Q I U W.D + s z.V.V.G.D.M.M.M.M.z.k.k.h.r.t.t.t.h.c.M.O @ r I.T Y.( @ * 0.C.G.G.B.",
"I.S w a &.` - * * r E Y.G @ 5 s e.h.k.k.l.l.z.z.v.j.j.j.l.l.l.l.l.v.M.z.o @ > H E U 1 @ * 0.V.G.C.B.",
"T.G 2 1 p ; $ o 3 , @ > > 5 @ o = - 0 : 0 0 s d k k z z x x N N B B B B $ # , > 5 , > , o N } } } X.",
"3 o             o , 3 3 , @                                               . o 2 3 3 @ o   X X   X * ",
"XXXXXX'.W.T.E G G F l r e e e 8 2 > > $ o o o o o o o o # O o * > , 3 9 e w r e S F F J Q E.Q.{.XXXX",
"XXXXXXXXXXXXXXXXXXXXXXXXXXXXXXXXXXXXXXXXXXXXXXXXXXXXXXXXXXXXXXXXXXXXXXXXXXXXXXXXXXXXXXXXXXXXXXXXXXXX",
"XXXXXXXXXXXXXXXXXXXXXXXXXXXXXXXXXXXXXXXXXXXXXXXXXXXXXXXXXXXXXXXXXXXXXXXXXXXXXXXXXXXXXXXXXXXXXXXXXXXX",
"XXXXXXXXXXXXXXXXXXXXXXXXXXXXXXXXXXXXXXXXXXXXXXXXXXXXXXXXXXXXXXXXXXXXXXXXXXXXXXXXXXXXXXXXXXXXXXXXXXXX",
"XXXXXXXXXXXXXXXXXXXXXXXXXXXXXXXXXXXXXXXXXXXXXXXXXXXXXXXXXXXXXXXXXXXXXXXXXXXXXXXXXXXXXXXXXXXXXXXXXXXX",
"XXXXXXXXXXXXXXXXXXXXXXXXXXXXXXXXXXXXXXXXXXXXXXXXXXXXXXXXXXXXXXXXXXXXXXXXXXXXXXXXXXXXXXXXXXXXXXXXXXXX",
"XXXXXXXXXXXXXXXXXXXXXXXXXXXXXXXXXXXXXXXXXXXXXXXXXXXXXXXXXXXXXXXXXXXXXXXXXXXXXXXXXXXXXXXXXXXXXXXXXXXX",
"XXXXXXXXXXXXXXXXXXXXXXXXXXXXXXXXXXXXXXXXXXXXXXXXXXXXXXXXXXXXXXXXXXXXXXXXXXXXXXXXXXXXXXXXXXXXXXXXXXXX",
"XXXXXXXXXXXXXXXXXXXXXXXXXXXXXXXXXXXXXXXXXXXXXXXXXXXXXXXXXXXXXXXXXXXXXXXXXXXXXXXXXXXXXXXXXXXXXXXXXXXX",
"XXXXXXXXXXXXXXXXXXXXXXXXXXXXXXXXXXXXXXXXXXXXXXXXXXXXXXXXXXXXXXXXXXXXXXXXXXXXXXXXXXXXXXXXXXXXXXXXXXXX"
};
