/* XPM */
static char *b587637d82ae414abbabe6abd8401819[] = {
/* columns rows colors chars-per-pixel */
"50 50 140 2 ",
"   c #2C9606",
".  c #2C9907",
"X  c #2C9709",
"o  c #2E9C0A",
"O  c #319707",
"+  c #329D07",
"@  c #309708",
"#  c #339D0C",
"$  c #389F0F",
"%  c #349E10",
"&  c #389F10",
"*  c #33A207",
"=  c #32A10E",
"-  c #34A00C",
";  c #35A10D",
":  c #36A00C",
">  c #37A10D",
",  c #34A20D",
"<  c #36A30C",
"1  c #34A00E",
"2  c #34A00F",
"3  c #35A10F",
"4  c #37A00F",
"5  c #34A20F",
"6  c #36A20E",
"7  c #37A30F",
"8  c #33A40C",
"9  c #36A40D",
"0  c #34A50F",
"q  c #36A40F",
"w  c #34A10E",
"e  c #39A009",
"r  c #38A00B",
"t  c #39A30B",
"y  c #38A00D",
"u  c #38A20C",
"i  c #39A30D",
"p  c #39A10E",
"a  c #38A20E",
"s  c #39A30F",
"d  c #3BA30E",
"f  c #3AA20F",
"g  c #38A50C",
"h  c #3AA40C",
"j  c #3BA50D",
"k  c #39A60D",
"l  c #38A50E",
"z  c #3AA40E",
"x  c #3BA50F",
"c  c #38A60F",
"v  c #3AA70E",
"b  c #3CA50D",
"n  c #3CA40F",
"m  c #39A30E",
"M  c #3AA90E",
"N  c #32A210",
"B  c #33A310",
"V  c #33A311",
"C  c #34A110",
"Z  c #35A110",
"A  c #37A010",
"S  c #35A310",
"D  c #35A211",
"F  c #36A210",
"G  c #36A211",
"H  c #37A311",
"J  c #36A312",
"K  c #37A312",
"L  c #34A411",
"P  c #36A411",
"I  c #34A412",
"U  c #37A512",
"Y  c #37A413",
"T  c #35A714",
"R  c #37A715",
"E  c #36A311",
"W  c #39A010",
"Q  c #38A110",
"!  c #39A011",
"~  c #38A111",
"^  c #3AA010",
"/  c #3AA111",
"(  c #39A211",
")  c #3BA310",
"_  c #39A013",
"`  c #3BA012",
"'  c #3AA112",
"]  c #39A212",
"[  c #3BA212",
"{  c #3AA312",
"}  c #3BA213",
"|  c #3AA313",
" . c #3CA113",
".. c #3CA212",
"X. c #3CA313",
"o. c #38A410",
"O. c #39A511",
"+. c #3AA410",
"@. c #3BA511",
"#. c #38A611",
"$. c #3AA710",
"%. c #38A412",
"&. c #38A413",
"*. c #39A513",
"=. c #3BA413",
"-. c #38A613",
";. c #3AA612",
":. c #3DA510",
">. c #3CA411",
",. c #3CA610",
"<. c #3DA711",
"1. c #3CA612",
"2. c #3DA713",
"3. c #3CA314",
"4. c #39A514",
"5. c #3BA414",
"6. c #39A714",
"7. c #3AA614",
"8. c #3BA715",
"9. c #39A416",
"0. c #3CA514",
"q. c #3DA415",
"w. c #3EA414",
"e. c #3DA615",
"r. c #3FA714",
"t. c #3EA516",
"y. c #3AA312",
"u. c #3AA811",
"i. c #3BAA10",
"p. c #3DAA11",
"a. c #3CA814",
"s. c #3DA915",
"d. c #3EA814",
"f. c #3CA816",
"g. c #3DA814",
"h. c #44AE16",
"j. c #40AA16",
"k. c #41A818",
"l. c #45AF1B",
"z. c #40A919",
/* pixels */
"{ F ; + ; ; + # F F { +.+.; # F +.e # F { ; o o o # ; h.# # # # # # # * = F ; $ k.F $ +.; , + # { F ",
"# # # # ; + ; # # # # # F F # F F # # # & o o ; F # + s e # ; $ # V = P # # # # { { # + s 4.{ # # # ",
"o P = ; +.F # # 4.s + # % # :.o V % # # { +.a.; ; + s g :.# { s ; P # # $ # # # # { # F F = ; ; s # ",
", i.- ; ; # $ ; F # + # # # { # o # ; ; , +.:.+ + { ; s + ; a.{ , ; { & $ $ # ; # e.F = ; = ; s { s ",
"9 +.8 ; # # & = 9 F + ; F ; # + # ; # +., s & $ $ +.+.s F F ; s +.+ :.e.s , F # # +.F ; ; +.; # 3.& ",
"+.; ; # & _ { # F # F # ; :.P = = F g s ; # # # # 4.s :.{ { ; # s ; s +.n + $ $ # ; # # # # # # # # ",
"{ # # # # # # + . # +.F s +.P = o = p.a.; # # # # s + :.F +.+.; # { ; ; e + # # # # P @ # # $ # & { ",
". # = { # # # # # { # o # # # = # V = F e.X.{ + o # # F +.$ # # # X.# # +.# # = P # ; # ; # # s + # ",
"o = F { # # + g g g g - ; # $ $ # $ # # # $ ; ; = # F P # { % { # { & & # & { P 4.+ = g F F +.4.4.o ",
"o + F s +., - , s # ; :.a.g { $ # # F # # { { ; = 4.F + # e.# 4.F F # o # # # { s + 9 # # s :.# F ; ",
"o ; # ; g ; g ; $ # # # = # F F F # o # { { e.# +.+ +.# # & # { # ; T + # $ # # # F + s ; F +.; +.; ",
"# ; ; ; + s s ; ; F +.P # # # o # P & # & s ; # = { { ; # + # F ; = +.+ +.; # ; = = + { ; = = , i.- ",
"# # # # , ; s +.; s 4.+.# # # 4.# = # # { # ; + o s :.+.; { :.# o 4.# ; +.; # # # = F # 9 +.F + +.s ",
"# # + + +.; 4.4.+.; e.X.# $ % F . V # # # ; # o # s n + s { { # # F o F ; ; F = o = # o = + # # { $ ",
"F o = ; # # # # + # { X.# s ; F ; ; & e # # #   # s :.s # # # = ; +.+ +.# { { # + # = +.# g # ; s s ",
"o o ; # # # ; # # # # { e.+.; :.4.# ; + # o = + + +.# +.; # # T o # + F { ; { # o T # s { +.+ ; # # ",
"o + +.; # # # # { # # # ; = # ; +.a.o   { = V # & l.; + ; = # = o o = # # # # # # # # # s ; s s # ; ",
"# { s # { e.{ # e.{ # % # # + ; +.+.e.% ; . . # $ F +.; 4.F o # F % # # # & # F = + = ; ; 4.:.s +.- ",
"+.F s s # +.+.g n g + + s s ; . +.; # = # % $ # # + +.:.{ $ # ; +.F ; # - # o # + F +.+ e n s s s ; ",
"+ # s +.# { # # # s ; ; s ; + F F + { # # F { # # # j.:.s # + = 4.+.F ; ; ; ; F # F F g ; s # # { # ",
"s :.; ; # # # # # { & $ +.:.# o o + ; P # # # # # ; + ; { { # ; +.:.F F % +.g = # # # # # $ # # # + ",
"# { + # + # # # # # # s +.F # # o # # { # + +.+.9 # # o ; s F = # # { # # { # # # # + # ; ; # F X.# ",
"# # # # ; # + + ; # # s { # F ; = o & { { { # n g = # a.; o F ; # { ; 3.e.# { 4.= # = ; # # { $ F # ",
"{ { { # g ; 9 s ; +.+.; { # { = # o e.# # # O # + # # P o # # , + ; { ; # # # ; = V F # # $ # # # ; ",
"; $ { ; 9 9 9 s ; # ; # { # +.F . . # + + F P + j.k.. F F # # % {   & _ # { # o = V # # # # # # { { ",
"# = # # ; ; ; # + P # F ; ; g ; F * a.+ P = = P F j.9 o & { & # s ; a.F F F # + o o = # :.P s { { # ",
"= F + ; + s +.+.a.s +.{ + # , ; +.P a.= F + F F F +.= + { { { # + # +.. = = o + F = = + ; +.# { & # ",
"o # # = # s { e g , :.; ; F { +.+.= M ; # # $ $ $ % # , { { # # s # + F F P = ; F F # + ; s { { & { ",
"= # # # ; ; +.s s # + + +.; # , g # g # # s { $ # # o + ; # # { F = s +.# + ; F F # # ; ; +.F ; { ; ",
"{ ; # s = + +.e.{ # # = o # = ; # { F # = { { # # { # # { # # ; +.+ + ; # + = F = F = # ; s ; + # # ",
"+ :.s ; ; = ; { # F # ; + ; F V # & F o o # { { { # { _ p.p.; { e.{ { ; # # = = F F = ; # ; # # % # ",
"o # # # { ; ; # # F # P # # # +.# { F = = ; # # # { # # # # n , # # ; X.& { ; F = ; V g { ; 9 ; ; 9 ",
"{ # # ; ; # s F # ; # F = = ; $ X.# + ; F { F 4.+ & # o F # # # { # { # s & # o + # 4.; # ; ; + # # ",
"$ # { # # # :.{ e.+ # # F = # # $ ; # ; { # = = + $ # = f.+.F 4.e.{ # ; ; :.; . o   = F F ; +.s #   ",
"# & # ; ; # e # $ # # P = + X { +.9 # # # # + P = $ e.# P = = ; { # # # # :.; + = = = # P # # s = # ",
"e.# # # +.# s # o # { = . + % # +.g # # # + # F V { ; F # $ $ # # # ; # + V P # P 4.o # = # # + = & ",
"+.= P F s s +.; o V # # # # { # & # = a.; # # # { { # # # # s X.$ X.; F ; # # F # ; ; = F # # o = F ",
"; + T = { { # { V V { # ; # { { $ F s { # + & { # s # # # { :.{ { { ; # ; F = F # ; ; ; # { { # = + ",
"= # P + # # # { o = { ; ; s # # ; # 4.; s ; { { # # # # # ; s s $ { = # = F F # F s # X.# # { # o { ",
"+.F # = s ; +.; # + # { # ; = # F # + + # # ; # = , ; F # # # # :.:.g = P # o + # ; # # ; { # + +.n ",
"F # # # { # ; o F ; + & $ # o + 4.# # + o # # F o * + + + & +.& { +.v = V # F F ; = F # + s s { { g ",
"# 4.. # { # # ; . = # # { +.# o P # +.% # { ; F = n # # # { { # o 9 g + # # # 4.; , + o # :.:., s ; ",
"# +.F ; # # F 4.4.= F # % # ; # ; # = P F ; o # T h s $ s { # { F , + o $ X.# - g v 9 F ; +., e s # ",
"= P # o F P # # F ; # o # ; F + ; # # # { # _ { % + ; ; # + o + P # = o ; +.; # $ # j.= ; +.# % s # ",
"; F = # # # = o o F = o ; +.{ # 4.P # # { + # o +., ; s # + F = # + o = + + = # # . a.= - ; s # { { ",
"# ; ; # { # = F = = o o F ; ; # F +.# { & { ; + +.; :.+.F = F P F # = # ; # # # ; # F 8 { 4.{ # { # ",
"{ F = F { # ; # # ; # # ; + o # +.{ # { { s ; ; # ; +.9 # o ; P F o # F ; = P Y # % F = # F ; ; # g ",
"X.# + ; # # ; # $ { # # # # # o F = e.F { s +.# # # # & % # = 9 { # 3.# 8 +.+ # # o ; # # # # s , , ",
"{ # = # # e.e.{ # # # # # ; ; % = + # ; { a.+.O # { # # # F o ; F   +.{ +.; ; # # o V ; ; F s g # :.",
"e.# P # # # # $ # # { ; # { ; = # { # # # # # # { # e.{ s ; P o { # # # ; ; # ; e.4.= g 9 + g g s + "
};
